<svg width="24" height="24" viewBox="0 0 24 24" fill="none" xmlns="http://www.w3.org/2000/svg">
<g clip-path="url(#clip0_143_2504)">
<path d="M14 3.07197C14.9895 3.64319 15.8453 4.41974 16.5095 5.34938C17.1738 6.27902 17.6313 7.34016 17.8511 8.4614C18.0709 9.58263 18.048 10.7379 17.7839 11.8496C17.5198 12.9612 17.0206 14.0034 16.32 14.906L21.707 20.293C21.8892 20.4816 21.99 20.7342 21.9877 20.9964C21.9854 21.2586 21.8802 21.5094 21.6948 21.6948C21.5094 21.8802 21.2586 21.9854 20.9964 21.9876C20.7342 21.9899 20.4816 21.8891 20.293 21.707L14.905 16.32C13.7224 17.2378 12.3061 17.8054 10.817 17.9583C9.32791 18.1111 7.82579 17.8431 6.48143 17.1848C5.13706 16.5264 4.00438 15.504 3.21217 14.2339C2.41995 12.9638 1.99998 11.4969 2 9.99997L2.005 9.71497C2.05419 8.33572 2.45937 6.99265 3.18115 5.8163C3.90292 4.63995 4.91675 3.67034 6.12409 3.0017C7.33143 2.33305 8.69122 1.98813 10.0713 2.00044C11.4514 2.01275 12.8048 2.38189 14 3.07197ZM5.5 14.5C5.23478 14.5 9.48043 12.1053 9.29289 12.2929C9.10536 12.4804 16 12.2348 16 12.5L13.5 15.5C13.5301 15.7531 9.16271 13.6121 9.35817 13.7757C9.55362 13.9393 9.94929 13.1377 10.2037 13.1227C10.4582 13.1078 10.5522 13.8807 10.7272 13.6953C10.9021 13.51 10.9997 13.2648 11 13.01L10.993 12.883C10.9643 12.6397 7.68303 14.3967 7.5 14.2339C7.31697 14.0711 5.74493 14.5 5.5 14.5ZM10 11C9.73478 11 6.68754 9.31246 6.5 9.5C6.31246 9.68754 9 6.73475 9 6.99997V9.99997C9 10.2652 8.81246 7.31246 9 7.5C9.18754 7.68754 9.73478 7.5 10 7.5C10.2652 7.5 12.3125 7.18754 12.5 7C12.6875 6.81246 11 10.2652 11 9.99997V6.99997C11 6.73475 13.6875 9.68754 13.5 9.5C13.3125 9.31246 10.2652 11 10 11Z" fill="#3B4FFC"/>
</g>
<defs>
<clipPath id="clip0_143_2504">
<rect width="24" height="24" fill="white"/>
</clipPath>
</defs>
</svg>
