<svg width="18" height="18" viewBox="0 0 18 18" fill="none" xmlns="http://www.w3.org/2000/svg">
<g clip-path="url(#clip0_2_2)">
<g clip-path="url(#clip1_2_2)">
<path d="M13.5151 5.97078C13.8045 6.18896 14.0822 6.44396 14.3047 6.73046C14.2625 6.84451 14.188 6.89164 14.0911 6.96117C13.4912 7.40791 13.0852 8.00799 12.8828 8.72655C12.8761 8.75041 12.8694 8.77428 12.8624 8.79886C12.6866 9.56866 12.9486 10.417 13.3408 11.0785C13.6809 11.618 14.1526 11.972 14.7149 12.2539C14.6986 12.3825 14.6626 12.4876 14.6107 12.6062C14.5991 12.6327 14.5991 12.6327 14.5873 12.6598C14.5623 12.7172 14.5369 12.7744 14.5115 12.8315C14.5028 12.8512 14.4941 12.8708 14.4852 12.891C14.0907 13.7831 13.6419 14.745 12.8563 15.3606C12.7958 15.4082 12.7371 15.4564 12.6786 15.5063C12.2896 15.8347 11.9164 16.0333 11.3977 16.0069C11.0024 15.9698 10.6196 15.7908 10.2563 15.641C9.48028 15.3238 8.85108 15.4482 8.09627 15.7343C8.06762 15.7452 8.03897 15.7561 8.00944 15.7672C7.95376 15.7885 7.89815 15.8099 7.84264 15.8316C7.56736 15.9374 7.30068 16.0157 7.00391 16.012C6.9803 16.0117 6.95668 16.0115 6.93234 16.0113C6.73971 16.0062 6.57759 15.9734 6.40235 15.8906C6.37419 15.8776 6.34602 15.8647 6.31701 15.8513C5.76937 15.5778 5.33928 15.1197 4.98048 14.6328C4.96759 14.6157 4.95471 14.5985 4.94144 14.5809C4.10991 13.4712 3.59159 12.1127 3.36719 10.75C3.36276 10.7242 3.35832 10.6984 3.35375 10.6719C3.13353 9.34894 3.27313 7.98648 4.05834 6.87234C4.59617 6.12724 5.30608 5.60982 6.21436 5.43676C6.96305 5.33906 7.6079 5.51362 8.28907 5.80761C8.82659 6.03856 9.26969 6.03009 9.81294 5.81586C9.96358 5.7553 10.1136 5.69334 10.2627 5.6291C11.3299 5.17422 12.5729 5.28137 13.5151 5.97078Z" fill="white"/>
<path d="M11.707 2C11.8891 2.36407 11.7614 3.03461 11.6435 3.40564C11.5254 3.74796 11.3551 4.00841 11.1055 4.26953C11.091 4.28606 11.0765 4.30259 11.0616 4.31962C10.5665 4.86305 9.71158 5.14999 9.00001 5.22656C8.97612 4.44455 9.10441 3.6411 9.64942 3.04248C9.91478 2.76442 10.2213 2.56278 10.5586 2.38281C10.584 2.36853 10.6094 2.35426 10.6355 2.33955C10.9375 2.17697 11.3575 1.99029 11.707 2Z" fill="white"/>
</g>
</g>
<defs>
<clipPath id="clip0_2_2">
<rect width="18" height="18" fill="white"/>
</clipPath>
<clipPath id="clip1_2_2">
<rect width="14" height="14" fill="white" transform="translate(2 2)"/>
</clipPath>
</defs>
</svg>
