<svg width="24" height="25" viewBox="0 0 24 25" fill="none" xmlns="http://www.w3.org/2000/svg">
<g clip-path="url(#clip0_415_3767)">
<path d="M6.97888 3.57401C7.86395 3.42321 8.77157 3.47296 9.63485 3.71958C10.4981 3.96621 11.2951 4.40343 11.9669 4.99901L12.0039 5.03201L12.0379 5.00201C12.6791 4.43931 13.4329 4.01981 14.2491 3.77149C15.0652 3.52318 15.9249 3.45177 16.7709 3.56201L17.0169 3.59801C18.0832 3.78212 19.0799 4.25117 19.9013 4.95548C20.7228 5.6598 21.3386 6.57316 21.6833 7.59885C22.0281 8.62454 22.0891 9.72437 21.8598 10.7819C21.6305 11.8394 21.1195 12.8152 20.3809 13.606L20.2009 13.791L20.1529 13.832L12.7029 21.211C12.531 21.3812 12.3032 21.4832 12.0618 21.4983C11.8203 21.5134 11.5816 21.4405 11.3899 21.293L11.2959 21.211L3.80288 13.789C3.0091 13.0167 2.44458 12.0397 2.17184 10.9663C1.8991 9.89287 1.92878 8.76491 2.2576 7.70733C2.58642 6.64974 3.20154 5.70381 4.03484 4.97428C4.86815 4.24476 5.88711 3.76011 6.97888 3.57401Z" fill="#3B4FFC"/>
</g>
<defs>
<clipPath id="clip0_415_3767">
<rect width="24" height="24" fill="white" transform="translate(0 0.5)"/>
</clipPath>
</defs>
</svg>
