<svg width="24" height="24" viewBox="0 0 24 24" fill="none" xmlns="http://www.w3.org/2000/svg">
<g opacity="0.5" clip-path="url(#clip0_152_8025)">
<path d="M9.76893 13.7354L22.1507 4.31774" stroke="#22212F" stroke-width="1.5" stroke-linecap="round" stroke-linejoin="round"/>
<path d="M22.1509 4.31777L13.285 21.2779C13.2286 21.3668 13.1479 21.4377 13.0524 21.4822C12.9569 21.5266 12.8507 21.5427 12.7463 21.5285C12.642 21.5143 12.5439 21.4704 12.4637 21.4021C12.3835 21.3338 12.3247 21.2439 12.2941 21.1432L9.76914 13.7354L3.30453 9.32421C3.21557 9.26784 3.14467 9.18711 3.10025 9.09162C3.05583 8.99613 3.03976 8.8899 3.05395 8.78554C3.06814 8.68118 3.11199 8.5831 3.18029 8.50293C3.2486 8.42277 3.33848 8.36391 3.43926 8.33333L22.1509 4.31777Z" stroke="#22212F" stroke-width="1.5" stroke-linecap="round" stroke-linejoin="round"/>
</g>
<defs>
<clipPath id="clip0_152_8025">
<rect width="24" height="24" fill="white"/>
</clipPath>
</defs>
</svg>
